<mxfile host="Electron" agent="Mozilla/5.0 (X11; Linux x86_64) AppleWebKit/537.36 (KHTML, like Gecko) draw.io/24.7.5 Chrome/126.0.6478.183 Electron/31.3.0 Safari/537.36" version="24.7.5">
  <diagram name="Page-1" id="zRMMw8YE-pyIVrGAT-sf">
    <mxGraphModel dx="1434" dy="822" grid="1" gridSize="10" guides="1" tooltips="1" connect="1" arrows="1" fold="1" page="1" pageScale="1" pageWidth="850" pageHeight="1100" math="0" shadow="0">
      <root>
        <mxCell id="0" />
        <mxCell id="1" parent="0" />
        <mxCell id="lZM2KmHgM9Xgh8onh7Ww-1" value="User&#39;s wallet&lt;div&gt;(RariMe or SSI Wallet)&lt;/div&gt;" style="swimlane;whiteSpace=wrap;html=1;startSize=30;" vertex="1" parent="1">
          <mxGeometry x="93.75" y="320" width="142.5" height="150" as="geometry" />
        </mxCell>
        <mxCell id="lZM2KmHgM9Xgh8onh7Ww-2" style="edgeStyle=orthogonalEdgeStyle;rounded=0;orthogonalLoop=1;jettySize=auto;html=1;entryX=0;entryY=0.75;entryDx=0;entryDy=0;startArrow=classic;startFill=1;endArrow=none;endFill=0;" edge="1" parent="1" source="lZM2KmHgM9Xgh8onh7Ww-1" target="lZM2KmHgM9Xgh8onh7Ww-5">
          <mxGeometry relative="1" as="geometry" />
        </mxCell>
        <mxCell id="lZM2KmHgM9Xgh8onh7Ww-3" value="1) Use secure biometrics to&amp;nbsp;&lt;b&gt;authorize&lt;/b&gt;&amp;nbsp;&lt;div&gt;&lt;b&gt;an agent&lt;/b&gt;&amp;nbsp;to generate proofs&amp;nbsp;&lt;div&gt;without user interaction for&lt;/div&gt;&lt;/div&gt;&lt;div&gt;a certain amount of time&lt;/div&gt;" style="text;html=1;align=center;verticalAlign=middle;resizable=0;points=[];autosize=1;strokeColor=none;fillColor=none;" vertex="1" parent="1">
          <mxGeometry x="265" y="320" width="230" height="70" as="geometry" />
        </mxCell>
        <mxCell id="lZM2KmHgM9Xgh8onh7Ww-4" value="" style="shape=cylinder3;whiteSpace=wrap;html=1;boundedLbl=1;backgroundOutline=1;size=15;" vertex="1" parent="1">
          <mxGeometry x="545" y="375" width="60" height="80" as="geometry" />
        </mxCell>
        <mxCell id="lZM2KmHgM9Xgh8onh7Ww-5" value="Agora" style="shape=document;whiteSpace=wrap;html=1;boundedLbl=1;" vertex="1" parent="1">
          <mxGeometry x="495" y="335" width="120" height="80" as="geometry" />
        </mxCell>
        <mxCell id="lZM2KmHgM9Xgh8onh7Ww-6" value="User&#39;s wallet&lt;div&gt;(RariMe or SSI Wallet)&lt;/div&gt;" style="swimlane;whiteSpace=wrap;html=1;startSize=30;" vertex="1" parent="1">
          <mxGeometry x="93.75" y="530" width="142.5" height="150" as="geometry" />
        </mxCell>
        <mxCell id="lZM2KmHgM9Xgh8onh7Ww-7" style="edgeStyle=orthogonalEdgeStyle;rounded=0;orthogonalLoop=1;jettySize=auto;html=1;entryX=0;entryY=0.75;entryDx=0;entryDy=0;startArrow=none;startFill=0;endArrow=classic;endFill=1;" edge="1" parent="1" source="lZM2KmHgM9Xgh8onh7Ww-6" target="lZM2KmHgM9Xgh8onh7Ww-10">
          <mxGeometry relative="1" as="geometry" />
        </mxCell>
        <mxCell id="lZM2KmHgM9Xgh8onh7Ww-8" value="2) For each aspect (scope) of the app,&amp;nbsp;&lt;div&gt;&lt;span style=&quot;background-color: initial;&quot;&gt;generate different zk proofs&amp;nbsp;&lt;/span&gt;&lt;span style=&quot;background-color: initial;&quot;&gt;containing&amp;nbsp;&lt;/span&gt;&lt;span style=&quot;background-color: initial;&quot;&gt;a&amp;nbsp;&lt;/span&gt;&lt;span style=&quot;background-color: initial;&quot;&gt;unique-per-scope,&amp;nbsp;&lt;/span&gt;&lt;/div&gt;&lt;div&gt;&lt;span style=&quot;background-color: initial;&quot;&gt;verifiable yet anonymous identifier,&amp;nbsp;&lt;/span&gt;&lt;span style=&quot;background-color: initial;&quot;&gt;and associate this proof with&amp;nbsp;&lt;/span&gt;&lt;/div&gt;&lt;div&gt;&lt;div&gt;&lt;div&gt;&lt;span style=&quot;background-color: initial;&quot;&gt;the hash of the data that the user&amp;nbsp;&lt;/span&gt;&lt;span style=&quot;background-color: initial;&quot;&gt;is posting,&amp;nbsp;&lt;/span&gt;&lt;/div&gt;&lt;div&gt;&lt;span style=&quot;background-color: initial;&quot;&gt;as well as&lt;/span&gt;&amp;nbsp;e.g,: disclosure of citizenship&amp;nbsp;&lt;span style=&quot;background-color: initial;&quot;&gt;&amp;amp; eventually other attributes&lt;/span&gt;&lt;/div&gt;&lt;/div&gt;&lt;/div&gt;" style="text;html=1;align=center;verticalAlign=middle;resizable=0;points=[];autosize=1;strokeColor=none;fillColor=none;" vertex="1" parent="1">
          <mxGeometry x="230" y="520" width="390" height="90" as="geometry" />
        </mxCell>
        <mxCell id="lZM2KmHgM9Xgh8onh7Ww-9" value="" style="shape=cylinder3;whiteSpace=wrap;html=1;boundedLbl=1;backgroundOutline=1;size=15;" vertex="1" parent="1">
          <mxGeometry x="680" y="585" width="60" height="80" as="geometry" />
        </mxCell>
        <mxCell id="lZM2KmHgM9Xgh8onh7Ww-10" value="Agora" style="shape=document;whiteSpace=wrap;html=1;boundedLbl=1;" vertex="1" parent="1">
          <mxGeometry x="630" y="545" width="120" height="80" as="geometry" />
        </mxCell>
      </root>
    </mxGraphModel>
  </diagram>
</mxfile>
